<svg xmlns="http://www.w3.org/2000/svg" viewBox="0 0 64 64">
  <defs>
    <linearGradient id="g1" x1="10%" y1="90%" x2="90%" y2="10%">
      <stop offset="0%" stop-color="#1B4F8A"></stop>
      <stop offset="45%" stop-color="#0D9488"></stop>
      <stop offset="100%" stop-color="#2DD4BF"></stop>
    </linearGradient>
    <linearGradient id="g2" x1="0%" y1="100%" x2="100%" y2="0%">
      <stop offset="0%" stop-color="#1B4F8A"></stop>
      <stop offset="100%" stop-color="#2DD4BF"></stop>
    </linearGradient>
  </defs>

  
  <path d="M14 6 C10 12 8 22 13 30 C15 25 16 16 14 6 Z" fill="url(#g1)" opacity="0.85"></path>
  
  <path d="M10 10 C5 17 5 27 11 34 C10 27 11 18 10 10 Z" fill="url(#g1)" opacity="0.65"></path>
  
  <path d="M18 4 C17 11 18 21 20 29 C21 22 21 12 18 4 Z" fill="url(#g1)" opacity="0.55"></path>

  
  <path d="M46 14 Q50 22 50 32 Q50 46 36 50 Q22 54 14 44 Q8 36 10 26 Q13 16 22 12" fill="none" stroke="url(#g1)" stroke-width="4.5" stroke-linecap="round"></path>

  
  <rect x="21" y="34" width="5" height="10" rx="1.5" fill="url(#g2)"></rect>
  <rect x="28" y="28" width="5" height="16" rx="1.5" fill="url(#g2)"></rect>
  <rect x="35" y="31" width="5" height="13" rx="1.5" fill="url(#g2)" opacity="0.7"></rect>

  
  <line x1="36" y1="22" x2="54" y2="8" stroke="url(#g2)" stroke-width="3.5" stroke-linecap="round"></line>
  <polyline points="46,5 54,8 51,17" fill="none" stroke="url(#g2)" stroke-width="3.5" stroke-linecap="round" stroke-linejoin="round"></polyline>
</svg>